PathFileType	4	(X/Y/Z)	AB12\squats_1.trc
DataRate	CameraRate	NumFrames	NumMarkers	Units	OrigDataRate	OrigDataStartFrame	OrigNumFrames
200.000000	200.000000	4	35	mm	200.000000	0	304
Frame#	Time	C7			LSHO			STRN			LASI			RASI			LPSI			RPSI			LGTR			RGTR			LTHC			LTHL			LTHR			LKNE			LMKNE			LSHC			LSHL			LSHR			LANK			LMANK			LMT1			LMT5			LCAL			RTHC			RTHL			RTHR			RKNE			RMKNE			RSHC			RSHL			RSHR			RANK			RMANK			RMT1			RMT5			RCAL			
		X1	Y1	Z1	X2	Y2	Z2	X3	Y3	Z3	X4	Y4	Z4	X5	Y5	Z5	X6	Y6	Z6	X7	Y7	Z7	X8	Y8	Z8	X9	Y9	Z9	X10	Y10	Z10	X11	Y11	Z11	X12	Y12	Z12	X13	Y13	Z13	X14	Y14	Z14	X15	Y15	Z15	X16	Y16	Z16	X17	Y17	Z17	X18	Y18	Z18	X19	Y19	Z19	X20	Y20	Z20	X21	Y21	Z21	X22	Y22	Z22	X23	Y23	Z23	X24	Y24	Z24	X25	Y25	Z25	X26	Y26	Z26	X27	Y27	Z27	X28	Y28	Z28	X29	Y29	Z29	X30	Y30	Z30	X31	Y31	Z31	X32	Y32	Z32	X33	Y33	Z33	X34	Y34	Z34	X35	Y35	Z35	

1	20.99	-3465.954384537201	1443.863065499512	2486.572967425376	-3513.95629090338	1400.350529290802	2606.320120845862	-3576.112367454748	1328.244434409014	2476.113212684695	-3470.556509531524	981.9471781489369	2633.588056623685	-3471.598579946245	978.4302507681086	2350.981491630687	-3273.857207480996	1050.169979344829	2522.443828004753	-3273.026602111503	1039.874994706164	2432.798143344213	-3349.986684052576	951.0469697234752	2694.764808069403	-3376.127042164321	910.6296892051574	2287.301497073996	-3413.787857303948	708.8836938551236	2701.586807442459	-3505.899683922211	622.3609177686637	2632.988760383873	-3344.714547882991	580.2441664956297	2602.007996171013	-3424.501319823634	482.2102195013362	2691.434512800281	-3439.152641596797	467.5540809991126	2560.613026642934	-3394.624916620734	304.8759486361458	2710.820022431058	-3450.095140805982	220.1836739299706	2672.948760175785	-3357.370845490448	189.9765476969099	2646.799570678602	-3399.940885401517	86.96995260295655	2708.240757115167	-3415.622623655966	81.45476133303841	2622.961404930511	-3543.532539475025	51.56417257825265	2663.228817136335	-3506.409838418695	43.25482605373445	2746.308736844361	-3328.438589171443	60.66583902835254	2676.181942947702	-3376.105551931219	556.7170239175051	2407.430449170561	-3406.731400800594	687.2906795592896	2300.855868707638	-3529.452429342134	635.7383818167176	2370.459516219819	-3442.007771528412	476.3009191634052	2316.587990564996	-3458.07277899748	447.1550023385131	2442.401888460071	-3354.630774123859	179.1637530354478	2351.192300520716	-3395.990657918583	303.4300729916777	2299.279824605122	-3451.853457746131	216.4026151256804	2338.709511838657	-3384.012898598306	91.70981130001674	2299.139076223216	-3405.075082072052	85.1735950404216	2383.397423902064	-3527.511931063167	54.6053287570887	2341.300383177753	-3493.024887205705	49.52225160797001	2267.676711038888	-3320.08252936936	68.92654602231617	2345.668372218517	
2	20.995	-3468.216181257143	1442.070376433189	2485.962163444575	-3516.222314910129	1397.955522242358	2605.7603811914	-3577.625036486776	1325.320749285572	2475.858204409622	-3468.862075298349	980.644674479834	2633.489129352286	-3470.362266554637	976.9322550840781	2351.021218554326	-3272.729093900447	1049.5478108157	2521.897444841959	-3271.980606763616	1039.218603009227	2432.300484431823	-3348.428570077706	950.5081043648132	2694.611646204289	-3375.102463113437	909.5838212786548	2286.924455413909	-3414.666410936748	708.3056126301436	2701.990800929912	-3507.586689257164	622.9760091425742	2632.963534855528	-3346.741404585973	578.7011077747305	2603.330493058246	-3427.85733943934	481.9064035758445	2692.382324408014	-3442.322793416337	467.3534218784305	2561.612676834392	-3396.631417614221	304.8309449645328	2711.565569364339	-3451.257756864256	219.8014625769287	2673.328682144019	-3358.31038153565	190.4655028697885	2647.20030613641	-3400.010643636201	87.00882331926051	2708.391519383378	-3415.68665284796	81.58426717006881	2623.042647780789	-3543.458761969079	51.60060158268178	2663.279823958585	-3506.356980470375	43.26255861901588	2746.286834773147	-3328.416547589238	60.67220512030502	2676.188618651634	-3377.104834422886	555.599645091545	2406.752314659234	-3406.893232858434	686.384043291245	2300.51090409374	-3529.923999028601	635.9754394285003	2370.298953972676	-3443.729748632737	475.9294807507295	2316.124386337319	-3459.582847314074	446.8971783374357	2441.88049096909	-3355.16333089438	179.303288408147	2351.080681403562	-3397.091024046498	303.3164174864217	2299.037257181833	-3452.539101838568	216.0936570791585	2338.506883441836	-3384.08414413149	91.72878377853007	2299.125901961678	-3405.144333406278	85.21360120618904	2383.391125682171	-3527.509141724507	54.57643371742057	2341.280138434505	-3493.019101988439	49.49985067776695	2267.669595083712	-3320.096457404995	68.8890567419416	2345.69751312118	
3	21	-3470.477142710904	1440.266316553033	2485.351988555913	-3518.488592059463	1395.546504011644	2605.199608782	-3579.141494715845	1322.381107160524	2475.607325248455	-3467.166928234094	979.3312862135318	2633.394330448181	-3469.124180884151	975.4246116665151	2351.064834108441	-3271.598968544005	1048.916517875901	2521.354583627036	-3270.934126574635	1038.558112810524	2431.804974566038	-3346.867056078773	949.9537808984793	2694.459118303689	-3374.081299716902	908.5342993565207	2286.548245251283	-3415.548288529434	707.726362406504	2702.399695912191	-3509.273708516511	623.5811633660275	2632.949240030243	-3348.772847214069	577.1516668211558	2604.655853778619	-3431.209239107371	481.5971027624786	2693.33243647763	-3445.490000557162	467.147392284809	2562.614087915989	-3398.639053114212	304.7820728048411	2712.309335712334	-3452.420734483364	219.4169900864193	2673.707392650555	-3359.248922254691	190.9517625505578	2647.600719473497	-3400.0797442774	87.04642523993391	2708.540321597024	-3415.75009086757	81.71196251666601	2623.122821702197	-3543.385507950225	51.63555153811495	2663.329458081409	-3506.304361393676	43.26935547092621	2746.265325937402	-3328.394686740109	60.67855621049646	2676.194809394231	-3378.112991717702	554.4710545759992	2406.062855082133	-3407.059228120082	685.4756454393529	2300.162269153856	-3530.397930550383	636.2138908100319	2370.142042233247	-3445.465252351567	475.5569407485437	2315.657580317109	-3461.108024161769	446.6369331125671	2441.356694102918	-3355.701070741635	179.4449823352545	2350.968549756584	-3398.200737805711	303.2023806854642	2298.792691862833	-3453.231768620022	215.7837041373008	2338.303582180714	-3384.157959149851	91.74928492501525	2299.112049044375	-3405.213984444465	85.25409247239952	2383.384545809534	-3527.507125181873	54.54484355841799	2341.259988011354	-3493.013703300235	49.47700186062477	2267.66290942551	-3320.112311113886	68.85397158935089	2345.726513820958	
4	21.005	-3472.727671961659	1438.442374081655	2484.745677607876	-3520.745990031677	1393.118567591037	2604.639866667866	-3580.656919764408	1319.42227289837	2475.363206244328	-3465.478125747715	977.9991602623484	2633.304425709352	-3467.886703508016	973.9029328904298	2351.112788383012	-3270.470422166698	1048.267508481396	2520.820601145518	-3269.890004679672	1037.887003887441	2431.31645440256	-3345.307876169676	949.3716736102898	2694.309115238927	-3373.065970100538	907.4778140234096	2286.174040666633	-3416.429919362031	707.1423291237201	2702.814013467981	-3510.955279825739	624.1682265047697	2632.952406605333	-3350.805320128766	575.5959837088675	2605.978095720393	-3434.544616010236	481.2793204940318	2694.281660825656	-3448.646541327861	466.9328132925448	2563.613798511702	-3400.642104640775	304.7271374439026	2713.047970139844	-3453.581324970252	219.0298112802342	2674.083041764786	-3360.18468459393	191.4321422277996	2647.999242219944	-3400.148890938128	87.08195709035144	2708.68619722874	-3415.812997030841	81.83614950416293	2623.201196198092	-3543.31400411379	51.6671300023592	2663.377251808105	-3506.253003579104	43.27472548627654	2746.244857370085	-3328.373875319216	60.68521946639211	2676.200184934543	-3379.133239624496	553.3284983664313	2405.360382543157	-3407.230725344643	684.5635160961169	2299.808769547562	-3530.874655776467	636.4516861651381	2369.987685680717	-3447.217278844386	475.1823559601229	2315.185963312581	-3462.652884564577	446.3731668901308	2440.829182024704	-3356.245756883457	179.5892017895183	2350.856522629995	-3399.321593460641	303.0869997693513	2298.545004818602	-3453.933493812443	215.4724464377666	2338.099051310177	-3384.235600123047	91.77165946819447	2299.097171089564	-3405.28493255321	85.29516511638505	2383.377800245122	-3527.506517684388	54.51026931127146	2341.239961667227	-3493.009011921892	49.45359406024178	2267.656767854011	-3320.13054878556	68.8224987879163	2345.755376558564	
